<svg xmlns="http://www.w3.org/2000/svg" viewBox="0 0 66.47 26.93"><defs><style>.cls-1,.cls-2{fill:#fff;}.cls-2{isolation:isolate;font-size:3.01px;font-family:Roboto-Condensed, Roboto;}</style></defs><title>Asset 60</title><g id="Layer_2" data-name="Layer 2"><g id="Layer_1-2" data-name="Layer 1"><path class="cls-1" d="M62.7,9c0-5-14.44-9-32.27-9C18.5,0,8.08,1.79,2.49,4.48c5.05-1.79,13.17-2.95,22.33-3,15.33,0,27.76,3.2,27.77,7.2,0,2.42-4.59,4.57-11.62,5.89l-4-9.9-4.44,11c-2.44.18-5,.28-7.67.28C14,16,4.56,14.37,0,12c3,2.32,9.21,4.21,17.19,5.21v9.72h9.09v-9C27.63,18,29,18,30.42,18h1.15L28,26.93H46L42.1,17.41C54.16,16.11,62.7,12.84,62.7,9Z"/><text class="cls-2" transform="translate(63.46 4.16)">R</text><path class="cls-1" d="M64.57,5a1.9,1.9,0,1,1,1.9-1.9A1.9,1.9,0,0,1,64.57,5Zm0-3.57a1.68,1.68,0,1,0,1.68,1.67A1.67,1.67,0,0,0,64.57,1.47Z"/></g></g></svg>