<svg xmlns="http://www.w3.org/2000/svg" viewBox="0 0 208.1 69.29"><defs><style>.cls-1,.cls-2{fill:#db1a5c;}.cls-2{isolation:isolate;font-size:6.07px;font-family:Roboto-Condensed, Roboto;}</style></defs><title>Asset 60</title><g id="Layer_2" data-name="Layer 2"><g id="Layer_1-2" data-name="Layer 1"><path class="cls-1" d="M163.38,18.16c0-10-29.09-18.14-65-18.16-24,0-45,3.61-56.25,9,10.17-3.6,26.52-5.94,45-6C118,3,143,9.51,143,17.55c0,4.88-9.22,9.21-23.39,11.87l-8.1-19.94-8.93,22.1c-4.91.37-10.09.58-15.45.58-21.88,0-40.83-3.23-50-8,5.94,4.67,18.53,8.46,34.6,10.49V54.22H90V36.11c2.73.1,5.52.15,8.34.15h2.32l-7.26,18H129.7l-7.79-19.17C146.17,32.43,163.38,25.86,163.38,18.16Z"/><text class="cls-2" transform="translate(164.91 8.38)">R</text><path class="cls-1" d="M167.15,10.14A3.82,3.82,0,1,1,171,6.32,3.83,3.83,0,0,1,167.15,10.14Zm0-7.19a3.38,3.38,0,1,0,3.38,3.37A3.38,3.38,0,0,0,167.15,3Z"/><path class="cls-1" d="M89.8,61.8H81.86v7.49H84V67.17H89.8a1.57,1.57,0,0,0,1.56-1.5V63.29A1.56,1.56,0,0,0,89.8,61.8Zm-.57,1.74v1.87H84V63.54Z"/><rect class="cls-1" x="183.11" y="67.1" width="2.19" height="2.19"/><rect class="cls-1" x="78.12" y="67.1" width="2.19" height="2.19"/><polygon class="cls-1" points="131.3 61.79 131.3 63.42 134.91 63.42 134.91 69.28 137.09 69.28 137.09 63.42 140.69 63.42 140.69 61.79 131.3 61.79"/><polygon class="cls-1" points="150.27 61.79 150.27 61.79 150.02 61.79 150.02 67.26 146.15 61.79 142.89 61.79 142.89 69.28 144.81 69.28 144.81 69.27 145.06 69.27 145.06 63.97 148.83 69.28 152.2 69.28 152.2 61.79 150.27 61.79"/><polygon class="cls-1" points="206.18 61.79 206.18 61.79 205.92 61.79 205.93 67.26 202.05 61.79 198.79 61.79 198.79 69.28 200.72 69.28 200.72 69.27 200.97 69.27 200.97 63.97 204.73 69.28 208.1 69.28 208.1 61.79 206.18 61.79"/><rect class="cls-1" x="117.22" y="61.79" width="2.2" height="7.49"/><polygon class="cls-1" points="113.53 61.79 110.47 67.37 107.42 61.79 104.83 61.79 108.94 69.28 112.01 69.28 116.12 61.79 113.53 61.79"/><polygon class="cls-1" points="195.11 61.79 192.06 67.37 189 61.79 186.41 61.79 190.52 69.28 193.59 69.28 197.7 61.79 195.11 61.79"/><polygon class="cls-1" points="129.09 63.4 129.09 61.79 122.04 61.79 121.61 61.79 121.61 63.4 121.61 64.75 121.61 66.4 121.61 67.58 121.61 69.24 121.61 69.28 121.79 69.28 122.04 69.28 122.11 69.28 123.92 69.28 129.09 69.28 129.09 69.24 129.09 68.53 129.09 67.58 123.92 67.58 123.92 66.4 129.09 66.4 129.09 64.75 123.92 64.75 123.92 63.4 129.09 63.4"/><path class="cls-1" d="M101.16,69.28h2.58l-4.1-7.49H96.56l-4.1,7.49H95l.7-1.27h4.72Zm-4.54-2.89L98.1,63.7l1.48,2.69Z"/><path class="cls-1" d="M162,69.28h2.59l-4.11-7.49H157.4l-4.1,7.49h2.59l.69-1.27h4.72Zm-4.54-2.89,1.48-2.69,1.48,2.69Z"/><polygon class="cls-1" points="175.36 61.79 177.9 61.79 181.99 69.28 179.41 69.28 176.63 64.21 175.13 66.96 176.4 69.28 173.81 69.28 171.03 64.21 168.26 69.28 165.67 69.28 168.16 64.74 168.16 64.74 169.77 61.79 172.31 61.79 173.83 64.6 175.36 61.79"/><path class="cls-1" d="M9.28,68.21a.92.92,0,0,1-.46.75,1.87,1.87,0,0,1-1.09.32H0V67.79H7v-2H1.55a1.84,1.84,0,0,1-1.09-.31A.9.9,0,0,1,0,64.78V62.86a.9.9,0,0,1,.46-.76,1.84,1.84,0,0,1,1.09-.31H9.28v1.49h-7v1.08H7.73a1.86,1.86,0,0,1,1.09.31.92.92,0,0,1,.46.76Z"/><path class="cls-1" d="M20.64,68.21a.9.9,0,0,1-.46.75,1.85,1.85,0,0,1-1.09.32H12.91A1.87,1.87,0,0,1,11.82,69a.9.9,0,0,1-.46-.75V61.79h2.32v6h4.64v-6h2.32Z"/><path class="cls-1" d="M32,64.78a.91.91,0,0,1-.45.75,1.89,1.89,0,0,1-1.09.31H25.05v3.44H22.73V61.79h7.73a1.89,1.89,0,0,1,1.09.31.91.91,0,0,1,.45.76Zm-2.32-.42V63.28H25.05v1.08Z"/><path class="cls-1" d="M43.37,64.78a.92.92,0,0,1-.46.75,1.86,1.86,0,0,1-1.09.31H36.41v3.44H34.09V61.79h7.73a1.86,1.86,0,0,1,1.09.31.92.92,0,0,1,.46.76Zm-2.32-.42V63.28H36.41v1.08Z"/><path class="cls-1" d="M54.73,68.21a.9.9,0,0,1-.46.75,1.85,1.85,0,0,1-1.09.32H47A1.87,1.87,0,0,1,45.91,69a.92.92,0,0,1-.46-.75V62.86a.93.93,0,0,1,.46-.76A1.86,1.86,0,0,1,47,61.79h6.18a1.84,1.84,0,0,1,1.09.31.91.91,0,0,1,.46.76Zm-2.32-.42V63.28H47.77v4.51Z"/><path class="cls-1" d="M66.09,69.28H63.78V65.84H59.14v3.44H56.82V61.79h7.73a1.89,1.89,0,0,1,1.09.31.92.92,0,0,1,.45.76V64a.91.91,0,0,1-.45.75,1.89,1.89,0,0,1-1.09.32,1.89,1.89,0,0,1,1.09.31.91.91,0,0,1,.45.76Zm-2.31-4.92V63.28H59.14v1.08Z"/><path class="cls-1" d="M77.46,63.28H74.13v6H71.81v-6H68.18V61.79h9.28Z"/></g></g></svg>