<svg xmlns="http://www.w3.org/2000/svg" viewBox="0 0 27.28 27.19"><defs><style>.cls-1{fill:#444;}</style></defs><title>Asset 30</title><g id="Layer_2" data-name="Layer 2"><g id="Layer_1-2" data-name="Layer 1"><path class="cls-1" d="M20.57,13.63a6.88,6.88,0,0,1-6.92,6.88,6.91,6.91,0,1,1,.06-13.82A6.88,6.88,0,0,1,20.57,13.63Zm-6.88,5.89a5.92,5.92,0,1,0-.11-11.84,5.92,5.92,0,0,0,.11,11.84Z"/><path class="cls-1" d="M0,13.35H4.46v.47H0Z"/><path class="cls-1" d="M22.85,13.37h4.42v.43H22.86Z"/><path class="cls-1" d="M13.42,4.33V0h.52V4.37Z"/><path class="cls-1" d="M13.42,27.17V22.84h.51v4.35Z"/><path class="cls-1" d="M4.1,3.89,7.23,7.07l-.33.34L3.7,4.28Z"/><path class="cls-1" d="M23.64,4.22,20.58,7.43,20.1,7C20.52,5.44,22,4.78,23,3.66Z"/><path class="cls-1" d="M3.71,22.93l3.18-3.14.37.37L4,23.22Z"/><path class="cls-1" d="M23.39,23.19l-3.31-3,.42-.41,3.15,3.13Z"/></g></g></svg>