<svg xmlns="http://www.w3.org/2000/svg" viewBox="0 0 14.51 15.16"><defs><style>.cls-1{fill:#fff;}</style></defs><title>Asset 20</title><g id="Layer_2" data-name="Layer 2"><g id="Layer_1-2" data-name="Layer 1"><path class="cls-1" d="M7.63,15.16A7.66,7.66,0,0,1,5.93,0c.16,0,.32-.07.45.08s.06.29,0,.45a7,7,0,0,0,7.7,9.9c.17,0,.34-.05.41.11a.55.55,0,0,1,0,.4,7.54,7.54,0,0,1-6,4.12C8.22,15.13,7.92,15.14,7.63,15.16ZM5.57.8A7,7,0,0,0,7.05,14.49a6.93,6.93,0,0,0,6.54-3.31A7.67,7.67,0,0,1,5.57.8Z"/></g></g></svg>