<svg xmlns="http://www.w3.org/2000/svg" xmlns:xlink="http://www.w3.org/1999/xlink" viewBox="0 0 94.81 27.43"><defs><style>.cls-1,.cls-5{fill:#fff;}.cls-1{stroke:#898989;stroke-miterlimit:10;stroke-width:0.2px;}.cls-2{fill:url(#Degradado_sin_nombre_4);}.cls-3{fill:url(#Degradado_sin_nombre_14);}.cls-4{fill:#a9d1db;}.cls-6{fill:#d1e2ea;}.cls-7{fill:#dc1a5b;}.cls-8{fill:#3ca6e0;}</style><linearGradient id="Degradado_sin_nombre_4" x1="6.39" y1="13.72" x2="25.97" y2="13.72" gradientUnits="userSpaceOnUse"><stop offset="0" stop-color="#0090c7"/><stop offset="1" stop-color="#42b3e5"/></linearGradient><linearGradient id="Degradado_sin_nombre_14" x1="16.26" y1="12.22" x2="23.74" y2="19.7" gradientUnits="userSpaceOnUse"><stop offset="0" stop-color="#0070aa"/><stop offset="0.22" stop-color="#007ab3" stop-opacity="0.68"/><stop offset="0.44" stop-color="#0084bc" stop-opacity="0.39"/><stop offset="0.63" stop-color="#008ac2" stop-opacity="0.18"/><stop offset="0.79" stop-color="#008ec6" stop-opacity="0.05"/><stop offset="0.9" stop-color="#0090c7" stop-opacity="0"/></linearGradient></defs><title>Asset 50</title><g id="Layer_2" data-name="Layer 2"><g id="Layer_1-2" data-name="Layer 1"><rect class="cls-1" x="0.1" y="0.1" width="94.61" height="27.23" rx="5"/><circle class="cls-2" cx="16.18" cy="13.72" r="9.79"/><path class="cls-3" d="M26,13.73a9.83,9.83,0,0,0-.17-1.81L21.12,8,15.5,15.33,13,18.75l5.29,4.55A9.78,9.78,0,0,0,26,13.73Z"/><path class="cls-4" d="M11.53,14.9l1.19,3.62a.38.38,0,0,0,.61.18l3.53-2.92S13.1,14.32,13.1,14.4A11.88,11.88,0,0,1,11.53,14.9Z"/><path class="cls-5" d="M20.85,8c-2.3.91-9.75,4-12.57,5.12a.43.43,0,0,0,0,.81l3.21,1,1.18,3.61a.38.38,0,0,0,.3.26,25.76,25.76,0,0,0,.27-2.92l5,3.7a.67.67,0,0,0,1.05-.41C19.8,16.67,21,10.51,21.4,8.41A.41.41,0,0,0,20.85,8Z"/><path class="cls-6" d="M13,18.77a25.76,25.76,0,0,0,.27-2.92l5.56-5.22s0-.09-.05-.07L11.53,14.9l1.18,3.61A.38.38,0,0,0,13,18.77Z"/><path class="cls-7" d="M47.31,7.58c0-1.4-4.09-2.55-9.14-2.55A20.46,20.46,0,0,0,30.25,6.3a20.4,20.4,0,0,1,6.33-.84c4.34,0,7.86.91,7.86,2,0,.68-1.3,1.29-3.29,1.67L40,6.36,38.76,9.47c-.69,0-1.42.08-2.18.08a17.37,17.37,0,0,1-7-1.12A10.87,10.87,0,0,0,34.42,9.9v2.76H37V10.11l1.17,0h.33l-1,2.53h5.1L41.47,10C44.89,9.59,47.31,8.67,47.31,7.58Z"/><path class="cls-7" d="M48,6.21,47.84,6H47.7v.21h-.1v-.6H48l.07,0,0,.06a.19.19,0,0,1,0,.08s0,0,0,.07l0,0,0,0,0,0,.16.23Zm0-.48a.12.12,0,0,0-.09,0H47.7v.21h.16a.12.12,0,0,0,.09,0,.09.09,0,0,0,0-.07A.1.1,0,0,0,48,5.73Z"/><path class="cls-7" d="M47.84,6.46a.54.54,0,0,1-.54-.54.54.54,0,0,1,.54-.54.54.54,0,0,1,.54.54A.55.55,0,0,1,47.84,6.46Zm0-1a.49.49,0,0,0-.48.48.48.48,0,0,0,.48.47.47.47,0,0,0,.47-.47A.48.48,0,0,0,47.84,5.44Z"/><polygon class="cls-7" points="38.93 14.05 38.93 14.34 39.56 14.34 39.56 15.35 39.94 15.35 39.94 14.34 40.56 14.34 40.56 14.05 38.93 14.05"/><polygon class="cls-7" points="42.21 14.05 42.21 14.05 42.16 14.05 42.16 15 41.49 14.05 40.93 14.05 40.93 15.35 41.26 15.35 41.26 15.35 41.3 15.35 41.3 14.43 41.95 15.35 42.54 15.35 42.54 14.05 42.21 14.05"/><rect class="cls-7" x="36.52" y="14.05" width="0.38" height="1.3"/><polygon class="cls-7" points="35.9 14.05 35.37 15.02 34.84 14.05 34.39 14.05 35.1 15.35 35.63 15.35 36.34 14.05 35.9 14.05"/><polygon class="cls-7" points="38.56 14.33 38.56 14.05 37.34 14.05 37.27 14.05 37.27 14.33 37.27 14.56 37.27 14.85 37.27 15.05 37.27 15.34 37.27 15.35 37.3 15.35 37.34 15.35 37.35 15.35 37.67 15.35 38.56 15.35 38.56 15.34 38.56 15.22 38.56 15.05 37.67 15.05 37.67 14.85 38.56 14.85 38.56 14.56 37.67 14.56 37.67 14.33 38.56 14.33"/><path class="cls-7" d="M33.59,15.35H34l-.71-1.3h-.53l-.71,1.3h.45l.12-.22h.82Zm-.79-.5.26-.47.25.47Z"/><path class="cls-7" d="M44.22,15.35h.45L44,14.05h-.54l-.71,1.3h.45l.12-.22h.82Zm-.79-.5.26-.47.26.47Z"/><path class="cls-7" d="M30.92,14.05H29.55v1.3h.37V15h1a.27.27,0,0,0,.27-.26v-.39A.27.27,0,0,0,30.92,14.05Zm-.1.28v.35h-.9v-.35Z"/><polygon class="cls-7" points="46.52 14.05 46.96 14.05 47.67 15.35 47.22 15.35 46.74 14.47 46.48 14.95 46.7 15.35 46.25 15.35 45.77 14.47 45.29 15.35 44.84 15.35 45.27 14.56 45.27 14.56 45.55 14.05 45.99 14.05 46.25 14.54 46.52 14.05"/><rect class="cls-7" x="31.37" y="14.99" width="0.36" height="0.36"/><path d="M30.27,21.3a.77.77,0,0,1-.7-.55.94.94,0,0,0,.31-.18c.12.24.27.36.46.36s.31-.11.41-.33a1.33,1.33,0,0,0,.14-.63V17.19h.34V20a1.71,1.71,0,0,1-.25.94A.8.8,0,0,1,30.27,21.3Z"/><path d="M33.14,21.29a1.18,1.18,0,0,1-1.08-.66,2.82,2.82,0,0,1-.34-1.48,2.6,2.6,0,0,1,.36-1.44,1.22,1.22,0,0,1,1.08-.6,1.18,1.18,0,0,1,1.08.62,2.74,2.74,0,0,1,.34,1.46,2.81,2.81,0,0,1-.34,1.47A1.23,1.23,0,0,1,33.14,21.29Zm0-3.81a.93.93,0,0,0-.82.53,2.24,2.24,0,0,0-.27,1.14,2.61,2.61,0,0,0,.24,1.2.89.89,0,0,0,.83.54.91.91,0,0,0,.83-.53,2.38,2.38,0,0,0,.25-1.18A2.45,2.45,0,0,0,34,18,.88.88,0,0,0,33.17,17.48Z"/><path d="M35.13,21.2v-4h.34v4Z"/><path d="M37.62,21.2,36.42,18V21.2h-.33v-4h.41l1.23,3.3v-3.3h.33v4Z"/><path d="M41.17,21.29a1.21,1.21,0,0,1-1.09-.66,2.92,2.92,0,0,1-.33-1.48,2.6,2.6,0,0,1,.36-1.44,1.22,1.22,0,0,1,1.08-.6,1.18,1.18,0,0,1,1.08.62,2.74,2.74,0,0,1,.34,1.46,2.81,2.81,0,0,1-.34,1.47A1.23,1.23,0,0,1,41.17,21.29Zm0-3.81a.93.93,0,0,0-.82.53,2.24,2.24,0,0,0-.27,1.14,2.61,2.61,0,0,0,.24,1.2.89.89,0,0,0,.83.54.91.91,0,0,0,.83-.53,2.49,2.49,0,0,0,.25-1.18A2.45,2.45,0,0,0,42,18,.88.88,0,0,0,41.2,17.48Z"/><path d="M44.3,21.3a1,1,0,0,1-.85-.43,1.74,1.74,0,0,1-.33-1.1V17.19h.33v2.55a1.44,1.44,0,0,0,.23.82.73.73,0,0,0,1.25,0,1.53,1.53,0,0,0,.21-.83V17.19h.34v2.6a1.74,1.74,0,0,1-.33,1.08A1,1,0,0,1,44.3,21.3Z"/><path d="M47.21,19.64a.62.62,0,0,1,.31.27,1,1,0,0,1,.11.46v.83h-.35v-.83a.47.47,0,0,0-.17-.38.51.51,0,0,0-.35-.12h-.33V21.2H46.1v-4h.66a.81.81,0,0,1,.71.39,1.55,1.55,0,0,1,.26.93,1.81,1.81,0,0,1-.12.67A.84.84,0,0,1,47.21,19.64Zm-.55-2.05h-.23v1.89h.24a.64.64,0,0,0,.52-.28,1.19,1.19,0,0,0,.19-.69,1,1,0,0,0-.2-.67A.61.61,0,0,0,46.66,17.59Z"/><path class="cls-8" d="M54.66,7.12H53.1V6.56h3.79v.56H55.33v4.56h-.67Z"/><path class="cls-8" d="M60.11,9.28h-2v1.84h2.22v.56H57.46V6.56h2.77v.55H58.12V8.73h2Z"/><path class="cls-8" d="M61.2,6.56h.66v4.56h2.19v.56H61.2Z"/><path class="cls-8" d="M67.44,9.28h-2v1.84h2.22v.56H64.79V6.56h2.76v.55h-2.1V8.73h2Z"/><path class="cls-8" d="M72.42,11.45a4.69,4.69,0,0,1-1.57.28,2.64,2.64,0,0,1-1.91-.67,2.65,2.65,0,0,1-.72-1.91A2.57,2.57,0,0,1,71,6.51a3.29,3.29,0,0,1,1.28.23l-.16.54A2.68,2.68,0,0,0,71,7.06a1.92,1.92,0,0,0-2.06,2.06,1.87,1.87,0,0,0,2,2.06,2.36,2.36,0,0,0,.89-.13V9.52h-1V9h1.69Z"/><path class="cls-8" d="M73.43,6.63a6.83,6.83,0,0,1,1.27-.11,2.08,2.08,0,0,1,1.48.42,1.28,1.28,0,0,1,.41,1,1.35,1.35,0,0,1-1,1.31v0a1.26,1.26,0,0,1,.75,1,7.93,7.93,0,0,0,.4,1.41h-.69a8,8,0,0,1-.34-1.22c-.15-.71-.42-1-1-1h-.63v2.22h-.66ZM74.09,9h.68c.71,0,1.16-.39,1.16-1s-.48-1-1.18-1a2.84,2.84,0,0,0-.66.06Z"/><path class="cls-8" d="M78.39,10.07l-.53,1.61h-.69l1.74-5.12h.8l1.75,5.12h-.71l-.55-1.61Zm1.68-.52-.5-1.47a8.47,8.47,0,0,1-.27-.93h0c-.07.3-.16.61-.25.92l-.51,1.48Z"/><path class="cls-8" d="M86.49,9.43c0-.71-.08-1.57-.07-2.21h0c-.17.6-.38,1.24-.64,1.94l-.9,2.49h-.51l-.82-2.44c-.25-.72-.45-1.38-.6-2h0c0,.64,0,1.5-.1,2.26l-.14,2.2H82l.36-5.12h.84L84.12,9c.21.63.38,1.19.51,1.72h0A15.65,15.65,0,0,1,85.2,9l.91-2.48H87l.32,5.12h-.65Z"/><path d="M58.9,20.51a3.34,3.34,0,0,1-1.35.24A2.39,2.39,0,0,1,55,18.16a2.55,2.55,0,0,1,2.67-2.69,2.7,2.7,0,0,1,1.21.23l-.15.54a2.48,2.48,0,0,0-1-.21,1.89,1.89,0,0,0-2,2.11,1.86,1.86,0,0,0,2,2.06A2.66,2.66,0,0,0,58.76,20Z"/><path d="M60.39,15.56V17.7h2.47V15.56h.67v5.11h-.67v-2.4H60.39v2.4h-.66V15.56Z"/><path d="M65.51,19.06,65,20.67H64.3L66,15.56h.8l1.75,5.11h-.71l-.55-1.61Zm1.68-.51-.5-1.48c-.12-.33-.19-.63-.27-.93h0c-.08.3-.16.62-.26.93l-.5,1.48Z"/><path d="M69.33,20.67V15.56h.72l1.64,2.59a13.55,13.55,0,0,1,.92,1.66h0c-.06-.68-.08-1.31-.08-2.1V15.56h.62v5.11h-.66l-1.63-2.59a16.56,16.56,0,0,1-1-1.71h0c0,.64.06,1.26.06,2.11v2.18Z"/><path d="M74.33,20.67V15.56h.72l1.64,2.59a13.55,13.55,0,0,1,.92,1.66h0c-.06-.68-.08-1.31-.08-2.1V15.56h.62v5.11h-.66l-1.63-2.59a14.76,14.76,0,0,1-.95-1.71h0c0,.64.06,1.26.06,2.11v2.18Z"/><path d="M82,18.27H80v1.85h2.22v.55H79.33V15.56H82.1v.55H80v1.62h2Z"/><path d="M83.07,15.56h.66v4.56h2.19v.55H83.07Z"/></g></g></svg>